<?xml version="1.0" encoding="UTF-8"?>
<svg width="350px" height="108px" viewBox="0 0 350 108" version="1.1" xmlns="http://www.w3.org/2000/svg" xmlns:xlink="http://www.w3.org/1999/xlink">
    <!-- Generator: Sketch 47.1 (45422) - http://www.bohemiancoding.com/sketch -->
    <title>Group</title>
    <desc>Created with Sketch.</desc>
    <defs></defs>
    <g id="Page-1" stroke="none" stroke-width="1" fill="none" fill-rule="evenodd">
        <g id="Artboard" transform="translate(-355.000000, -670.000000)">
            <g id="Group" transform="translate(355.000000, 670.000000)">
                <text id="Swiss-Color®-Interna" font-family="Raleway-Medium, Raleway" font-size="20" font-weight="400">
                    <tspan x="101" y="19" fill="#ED1C24">Swiss Color®</tspan>
                    <tspan x="226.32" y="19" fill="#000000"> International </tspan>
                    <tspan x="101" y="43" font-size="11" fill="#000000">Microblading Academy by Master Ana Perrone</tspan>
                </text>
                <g id="Page-1">
                    <polygon id="Fill-2" fill="#8B8C8D" points="0.217 107.983 74.383 107.983 74.383 93.354 0.217 93.354"></polygon>
                    <polygon id="Fill-3" fill="#FEFEFE" points="3.745 104.53 4.798 104.53 4.798 95.744 3.745 95.744"></polygon>
                    <g id="Group-83" transform="translate(0.000000, 0.199000)">
                        <path d="M7.0254,97.9691 L7.9124,97.9691 L7.9124,98.9781 L7.9344,98.9781 C8.3324,98.1911 8.9754,97.8211 9.7964,97.8211 C11.3024,97.8211 11.7684,98.7811 11.7684,100.1471 L11.7684,104.3301 L10.8264,104.3301 L10.8264,100.0241 C10.8264,99.2491 10.3824,98.7441 9.6624,98.7441 C8.5204,98.7441 7.9664,99.5931 7.9664,100.7371 L7.9664,104.3301 L7.0254,104.3301 L7.0254,97.9691 Z" id="Fill-4" fill="#FEFEFE"></path>
                        <path d="M15.1034,97.9691 L16.2454,97.9691 L16.2454,98.8921 L15.1034,98.8921 L15.1034,102.8421 C15.1034,103.3211 15.2254,103.4071 15.8124,103.4071 L16.2454,103.4071 L16.2454,104.3301 L15.5244,104.3301 C14.5494,104.3301 14.1624,104.1091 14.1624,102.9401 L14.1624,98.8921 L13.1864,98.8921 L13.1864,97.9691 L14.1624,97.9691 L14.1624,96.0621 L15.1034,96.0621 L15.1034,97.9691 Z" id="Fill-6" fill="#FEFEFE"></path>
                        <path d="M21.8737,100.5408 C21.8297,99.5438 21.1537,98.7448 20.2227,98.7448 C19.2367,98.7448 18.6487,99.5688 18.5817,100.5408 L21.8737,100.5408 Z M22.7827,102.3128 C22.5277,103.7158 21.6187,104.4788 20.3337,104.4788 C18.5057,104.4788 17.6407,103.0748 17.5857,101.1308 C17.5857,99.2238 18.7147,97.8218 20.2787,97.8218 C22.3057,97.8218 22.9257,99.9258 22.8707,101.4638 L18.5817,101.4638 C18.5487,102.5708 19.1147,103.5558 20.3667,103.5558 C21.1417,103.5558 21.6857,103.1368 21.8517,102.3128 L22.7827,102.3128 Z" id="Fill-8" fill="#FEFEFE"></path>
                        <path d="M24.4221,97.9691 L25.3091,97.9691 L25.3091,99.3111 L25.3311,99.3111 C25.7851,98.2891 26.4161,97.7841 27.4361,97.8211 L27.4361,98.9291 C25.9171,98.9291 25.3641,99.8891 25.3641,101.5001 L25.3641,104.3301 L24.4221,104.3301 L24.4221,97.9691 Z" id="Fill-10" fill="#FEFEFE"></path>
                        <path d="M28.9521,97.9691 L29.8391,97.9691 L29.8391,98.9781 L29.8611,98.9781 C30.2591,98.1911 30.9021,97.8211 31.7221,97.8211 C33.2291,97.8211 33.6951,98.7811 33.6951,100.1471 L33.6951,104.3301 L32.7531,104.3301 L32.7531,100.0241 C32.7531,99.2491 32.3091,98.7441 31.5901,98.7441 C30.4481,98.7441 29.8941,99.5931 29.8941,100.7371 L29.8941,104.3301 L28.9521,104.3301 L28.9521,97.9691 Z" id="Fill-12" fill="#FEFEFE"></path>
                        <path d="M39.2685,101.0451 C38.9025,101.3411 38.1925,101.3531 37.5625,101.4761 C36.9415,101.5991 36.4095,101.8451 36.4095,102.6201 C36.4095,103.3091 36.9415,103.5551 37.5175,103.5551 C38.7585,103.5551 39.2685,102.6941 39.2685,102.1161 L39.2685,101.0451 Z M40.7975,104.3061 C40.6315,104.4171 40.4205,104.4781 40.1225,104.4781 C39.6345,104.4781 39.3235,104.1831 39.3235,103.4941 C38.8035,104.1701 38.1055,104.4781 37.3075,104.4781 C36.2645,104.4781 35.4125,103.9611 35.4125,102.6941 C35.4125,101.2541 36.3755,100.9461 37.3515,100.7371 C38.3925,100.5161 39.2795,100.5891 39.2795,99.8021 C39.2795,98.8911 38.6035,98.7451 38.0055,98.7451 C37.2075,98.7451 36.6195,99.0151 36.5755,99.9491 L35.6345,99.9491 C35.6895,98.3751 36.7865,97.8221 38.0615,97.8221 C39.0915,97.8221 40.2105,98.0791 40.2105,99.5691 L40.2105,102.8411 C40.2105,103.3341 40.2105,103.5551 40.5085,103.5551 C40.5865,103.5551 40.6755,103.5431 40.7975,103.4941 L40.7975,104.3061 Z" id="Fill-14" fill="#FEFEFE"></path>
                        <path d="M43.5898,97.9691 L44.7308,97.9691 L44.7308,98.8921 L43.5898,98.8921 L43.5898,102.8421 C43.5898,103.3211 43.7118,103.4071 44.2988,103.4071 L44.7308,103.4071 L44.7308,104.3301 L44.0108,104.3301 C43.0358,104.3301 42.6478,104.1091 42.6478,102.9401 L42.6478,98.8921 L41.6728,98.8921 L41.6728,97.9691 L42.6478,97.9691 L42.6478,96.0621 L43.5898,96.0621 L43.5898,97.9691 Z" id="Fill-16" fill="#FEFEFE"></path>
                        <path d="M46.438,104.33 L47.379,104.33 L47.379,97.969 L46.438,97.969 L46.438,104.33 Z M46.438,96.825 L47.379,96.825 L47.379,95.545 L46.438,95.545 L46.438,96.825 Z" id="Fill-18" fill="#FEFEFE"></path>
                        <path d="M51.9223,103.5553 C52.9093,103.5553 53.7063,102.6943 53.7063,101.1563 C53.7063,99.6053 52.9093,98.7443 51.9223,98.7443 C50.9353,98.7443 50.1383,99.6053 50.1383,101.1563 C50.1383,102.6943 50.9353,103.5553 51.9223,103.5553 M51.9223,97.8213 C53.7393,97.8213 54.7043,99.2863 54.7043,101.1563 C54.7043,103.0143 53.7393,104.4783 51.9223,104.4783 C50.1053,104.4783 49.1403,103.0143 49.1403,101.1563 C49.1403,99.2863 50.1053,97.8213 51.9223,97.8213" id="Fill-20" fill="#FEFEFE"></path>
                        <path d="M56.4209,97.9691 L57.3079,97.9691 L57.3079,98.9781 L57.3299,98.9781 C57.7279,98.1911 58.3709,97.8211 59.1909,97.8211 C60.6979,97.8211 61.1639,98.7811 61.1639,100.1471 L61.1639,104.3301 L60.2219,104.3301 L60.2219,100.0241 C60.2219,99.2491 59.7789,98.7441 59.0579,98.7441 C57.9169,98.7441 57.3629,99.5931 57.3629,100.7371 L57.3629,104.3301 L56.4209,104.3301 L56.4209,97.9691 Z" id="Fill-21" fill="#FEFEFE"></path>
                        <path d="M66.7374,101.0451 C66.3714,101.3411 65.6614,101.3531 65.0314,101.4761 C64.4104,101.5991 63.8784,101.8451 63.8784,102.6201 C63.8784,103.3091 64.4104,103.5551 64.9864,103.5551 C66.2274,103.5551 66.7374,102.6941 66.7374,102.1161 L66.7374,101.0451 Z M68.2664,104.3061 C68.1004,104.4171 67.8894,104.4781 67.5914,104.4781 C67.1034,104.4781 66.7924,104.1831 66.7924,103.4941 C66.2724,104.1701 65.5744,104.4781 64.7764,104.4781 C63.7344,104.4781 62.8814,103.9611 62.8814,102.6941 C62.8814,101.2541 63.8454,100.9461 64.8204,100.7371 C65.8614,100.5161 66.7484,100.5891 66.7484,99.8021 C66.7484,98.8911 66.0724,98.7451 65.4744,98.7451 C64.6764,98.7451 64.0894,99.0151 64.0444,99.9491 L63.1034,99.9491 C63.1584,98.3751 64.2554,97.8221 65.5304,97.8221 C66.5604,97.8221 67.6784,98.0791 67.6784,99.5691 L67.6784,102.8411 C67.6784,103.3341 67.6784,103.5551 67.9774,103.5551 C68.0554,103.5551 68.1444,103.5431 68.2664,103.4941 L68.2664,104.3061 Z" id="Fill-22" fill="#FEFEFE"></path>
                        <polygon id="Fill-23" fill="#FEFEFE" points="69.807 104.331 70.749 104.331 70.749 95.545 69.807 95.545"></polygon>
                        <polygon id="Fill-24" fill="#EC1D24" points="67.4175 57.5439 60.0125 57.5439 60.0125 50.1089 67.4195 50.1089 67.4195 42.6829 74.4245 42.6869 74.4245 16.6519 0.2595 16.6519 0.2595 90.7729 74.4245 90.7729 74.4245 64.9829 67.4215 64.9829"></polygon>
                        <polygon id="Fill-25" fill="#FEFEFE" points="67.4195 42.6824 67.4195 50.1084 60.0135 50.1084 60.0135 57.5434 67.4175 57.5434 67.4215 64.9824 74.4245 64.9824 74.4245 42.6864"></polygon>
                        <polygon id="Fill-26" fill="#8B8C8D" points="0.217 14.646 74.382 14.646 74.382 0.016 0.217 0.016"></polygon>
                        <polygon id="Fill-27" fill="#FEFEFE" points="49.9216 39.9692 49.7316 39.9692 49.7316 40.1592 49.7316 41.0902 49.7316 41.2802 49.9216 41.2802 50.8536 41.2802 51.0426 41.2802 51.0426 41.0902 51.0426 40.1592 51.0426 39.9692 50.8536 39.9692"></polygon>
                        <path d="M82.3963,3.3434 C82.9053,3.3434 83.7203,3.4284 83.7203,2.7584 C83.7203,2.2914 83.1943,2.2234 82.7523,2.2234 L81.6913,2.2234 L81.6913,3.3434 L82.3963,3.3434 Z M84.0853,5.4054 L83.5593,5.4054 L82.5323,3.7514 L81.6913,3.7514 L81.6913,5.4054 L81.2843,5.4054 L81.2843,1.8174 L82.8543,1.8174 C83.8043,1.8174 84.1273,2.1724 84.1273,2.7664 C84.1273,3.4704 83.6353,3.7344 82.9993,3.7514 L84.0853,5.4054 Z M85.4733,3.5384 C85.4733,1.9434 84.1993,0.6714 82.6033,0.6714 C80.9993,0.6714 79.7173,1.9434 79.7173,3.5384 C79.7173,5.1504 80.9993,6.4234 82.6033,6.4234 C84.1993,6.4234 85.4733,5.1504 85.4733,3.5384 L85.4733,3.5384 Z M79.3093,3.5384 C79.3093,1.7314 80.7873,0.2634 82.6033,0.2634 C84.4113,0.2634 85.8793,1.7314 85.8793,3.5384 C85.8793,5.3544 84.4113,6.8294 82.6033,6.8294 C80.7873,6.8294 79.3093,5.3544 79.3093,3.5384 L79.3093,3.5384 Z" id="Fill-28" fill="#231F20"></path>
                        <path d="M4.6189,9.4421 C4.6519,10.3571 5.3679,10.6471 6.1259,10.6471 C6.7009,10.6471 7.4829,10.5021 7.4829,9.7191 C7.4829,8.9241 6.5709,8.7921 5.6499,8.5631 C4.7389,8.3341 3.8159,7.9971 3.8159,6.8051 C3.8159,5.5521 4.9339,5.0351 5.9089,5.0351 C7.1459,5.0351 8.1329,5.4681 8.2089,6.9861 L7.2869,6.9861 C7.2219,6.1901 6.5929,5.9381 5.9849,5.9381 C5.4329,5.9381 4.7929,6.1061 4.7929,6.7321 C4.7929,7.4671 5.7679,7.5871 6.6249,7.8161 C7.5479,8.0461 8.4579,8.3821 8.4579,9.5871 C8.4579,11.0681 7.2109,11.5501 6.0719,11.5501 C4.8139,11.5501 3.7509,10.9831 3.6969,9.4421 L4.6189,9.4421 Z" id="Fill-29" fill="#FEFEFE"></path>
                        <polygon id="Fill-30" fill="#FEFEFE" points="16.5052 11.4052 15.5282 11.4052 14.3902 6.4552 14.3682 6.4552 13.2402 11.4052 12.2432 11.4052 10.4432 5.1792 11.4622 5.1792 12.7312 10.2732 12.7532 10.2732 13.8802 5.1792 14.8892 5.1792 16.0602 10.2732 16.0822 10.2732 17.3412 5.1792 18.2942 5.1792"></polygon>
                        <path d="M20.703,11.405 L21.625,11.405 L21.625,5.179 L20.703,5.179 L20.703,11.405 Z M20.702,4.059 L21.624,4.059 L21.624,2.806 L20.702,2.806 L20.702,4.059 Z" id="Fill-31" fill="#FEFEFE"></path>
                        <path d="M25.0943,9.4421 C25.1273,10.3571 25.8433,10.6471 26.6013,10.6471 C27.1763,10.6471 27.9583,10.5021 27.9583,9.7191 C27.9583,8.9241 27.0463,8.7921 26.1253,8.5631 C25.2133,8.3341 24.2913,7.9971 24.2913,6.8051 C24.2913,5.5521 25.4093,5.0351 26.3843,5.0351 C27.6213,5.0351 28.6083,5.4681 28.6833,6.9861 L27.7623,6.9861 C27.6973,6.1901 27.0683,5.9381 26.4603,5.9381 C25.9083,5.9381 25.2673,6.1061 25.2673,6.7321 C25.2673,7.4671 26.2433,7.5871 27.1003,7.8161 C28.0233,8.0461 28.9333,8.3821 28.9333,9.5871 C28.9333,11.0681 27.6863,11.5501 26.5473,11.5501 C25.2893,11.5501 24.2263,10.9831 24.1723,9.4421 L25.0943,9.4421 Z" id="Fill-32" fill="#FEFEFE"></path>
                        <path d="M31.9917,9.4421 C32.0247,10.3571 32.7407,10.6471 33.4987,10.6471 C34.0737,10.6471 34.8557,10.5021 34.8557,9.7191 C34.8557,8.9241 33.9437,8.7921 33.0227,8.5631 C32.1117,8.3341 31.1887,7.9971 31.1887,6.8051 C31.1887,5.5521 32.3067,5.0351 33.2817,5.0351 C34.5187,5.0351 35.5057,5.4681 35.5817,6.9861 L34.6597,6.9861 C34.5947,6.1901 33.9657,5.9381 33.3577,5.9381 C32.8057,5.9381 32.1657,6.1061 32.1657,6.7321 C32.1657,7.4671 33.1407,7.5871 33.9977,7.8161 C34.9207,8.0461 35.8307,8.3821 35.8307,9.5871 C35.8307,11.0681 34.5837,11.5501 33.4447,11.5501 C32.1867,11.5501 31.1237,10.9831 31.0697,9.4421 L31.9917,9.4421 Z" id="Fill-33" fill="#FEFEFE"></path>
                        <path d="M44.9949,7.1781 C44.8539,6.3951 44.3659,5.9371 43.6069,5.9371 C42.2719,5.9371 41.8609,7.1061 41.8609,8.3701 C41.8609,9.5151 42.3269,10.6461 43.4989,10.6461 C44.3869,10.6461 44.9189,10.0681 45.0379,9.1291 L45.9819,9.1291 C45.7759,10.6461 44.9189,11.5491 43.5089,11.5491 C41.7959,11.5491 40.8849,10.2251 40.8849,8.3701 C40.8849,6.5041 41.7529,5.0341 43.5309,5.0341 C44.7999,5.0341 45.8189,5.6971 45.9499,7.1781 L44.9949,7.1781 Z" id="Fill-34" fill="#FEFEFE"></path>
                        <path d="M50.9054,10.6464 C51.8714,10.6464 52.6514,9.8034 52.6514,8.2974 C52.6514,6.7804 51.8714,5.9374 50.9054,5.9374 C49.9404,5.9374 49.1594,6.7804 49.1594,8.2974 C49.1594,9.8034 49.9404,10.6464 50.9054,10.6464 M50.9054,5.0344 C52.6844,5.0344 53.6284,6.4674 53.6284,8.2974 C53.6284,10.1174 52.6844,11.5494 50.9054,11.5494 C49.1274,11.5494 48.1824,10.1174 48.1824,8.2974 C48.1824,6.4674 49.1274,5.0344 50.9054,5.0344" id="Fill-35" fill="#FEFEFE"></path>
                        <polygon id="Fill-36" fill="#FEFEFE" points="56.241 11.405 57.164 11.405 57.164 2.806 56.241 2.806"></polygon>
                        <path d="M62.4876,10.6464 C63.4526,10.6464 64.2336,9.8034 64.2336,8.2974 C64.2336,6.7804 63.4526,5.9374 62.4876,5.9374 C61.5216,5.9374 60.7416,6.7804 60.7416,8.2974 C60.7416,9.8034 61.5216,10.6464 62.4876,10.6464 M62.4876,5.0344 C64.2666,5.0344 65.2106,6.4674 65.2106,8.2974 C65.2106,10.1174 64.2666,11.5494 62.4876,11.5494 C60.7096,11.5494 59.7656,10.1174 59.7656,8.2974 C59.7656,6.4674 60.7096,5.0344 62.4876,5.0344" id="Fill-37" fill="#FEFEFE"></path>
                        <path d="M67.7368,5.1788 L68.6048,5.1788 L68.6048,6.4918 L68.6268,6.4918 C69.0708,5.4918 69.6888,4.9978 70.6868,5.0338 L70.6868,6.1178 C69.2008,6.1178 68.6588,7.0578 68.6588,8.6348 L68.6588,11.4048 L67.7368,11.4048 L67.7368,5.1788 Z" id="Fill-38" fill="#FEFEFE"></path>
                        <path d="M57.3649,84.8698 C50.4769,78.2618 44.3409,66.1228 44.3409,53.1878 C44.3409,40.3308 50.4389,28.2278 57.2669,21.6028 L55.0459,19.3168 C47.5099,26.6308 41.1529,39.2918 41.1529,53.1878 C41.1529,67.1688 47.5519,79.8708 55.1579,87.1678 L57.3649,84.8698 Z" id="Fill-39" fill="#FEFEFE"></path>
                        <path d="M31.4937,19.4854 L30.8547,19.8074 L30.8887,19.7914 C26.6027,21.8394 21.9217,27.7034 20.6877,34.7294 C19.3747,42.2754 22.8337,47.9034 25.0307,51.2954 C25.0197,51.2774 25.5927,52.1874 25.5927,52.1874 C29.1917,57.8574 31.4887,63.3334 30.4297,69.4254 C29.2067,76.3784 24.5197,82.1934 20.2127,84.2534 L21.6267,87.2064 C26.8567,84.7034 32.2547,77.9524 33.6527,70.0074 C34.8467,63.1384 32.3637,56.7444 28.3607,50.4404 C28.3637,50.4464 27.7927,49.5354 27.7927,49.5354 C25.9007,46.6154 22.7827,41.7914 23.9127,35.2924 C24.9377,29.4624 29.0437,24.3014 32.3037,22.7424 L33.0477,22.3674 L31.5777,19.4434 L31.4937,19.4854 Z" id="Fill-40" fill="#FEFEFE"></path>
                        <polygon id="Fill-41" fill="#FEFEFE" points="3.74 21.682 5.076 21.682 5.076 20.346 3.74 20.346"></polygon>
                        <polygon id="Fill-42" fill="#FEFEFE" points="10.308 28.247 11.644 28.247 11.644 26.911 10.308 26.911"></polygon>
                        <polygon id="Fill-43" fill="#FEFEFE" points="16.882 21.694 18.218 21.694 18.218 20.358 16.882 20.358"></polygon>
                        <polygon id="Fill-44" fill="#FEFEFE" points="29.998 34.838 31.334 34.838 31.334 33.502 29.998 33.502"></polygon>
                        <polygon id="Fill-45" fill="#FEFEFE" points="29.998 47.961 31.334 47.961 31.334 46.625 29.998 46.625"></polygon>
                        <polygon id="Fill-46" fill="#FEFEFE" points="16.871 34.84 18.207 34.84 18.207 33.504 16.871 33.504"></polygon>
                        <polygon id="Fill-47" fill="#FEFEFE" points="16.871 47.964 18.207 47.964 18.207 46.628 16.871 46.628"></polygon>
                        <polygon id="Fill-48" fill="#FEFEFE" points="16.871 61.1 18.207 61.1 18.207 59.764 16.871 59.764"></polygon>
                        <polygon id="Fill-49" fill="#FEFEFE" points="23.451 67.37 24.787 67.37 24.787 66.034 23.451 66.034"></polygon>
                        <polygon id="Fill-50" fill="#FEFEFE" points="16.87 74.23 18.206 74.23 18.206 72.894 16.87 72.894"></polygon>
                        <polygon id="Fill-51" fill="#FEFEFE" points="16.87 87.366 18.206 87.366 18.206 86.03 16.87 86.03"></polygon>
                        <polygon id="Fill-52" fill="#FEFEFE" points="30.003 87.36 31.339 87.36 31.339 86.024 30.003 86.024"></polygon>
                        <polygon id="Fill-53" fill="#FEFEFE" points="36.592 28.249 37.928 28.249 37.928 26.913 36.592 26.913"></polygon>
                        <polygon id="Fill-54" fill="#FEFEFE" points="36.592 41.312 37.928 41.312 37.928 39.976 36.592 39.976"></polygon>
                        <polygon id="Fill-55" fill="#FEFEFE" points="36.591 54.333 37.927 54.333 37.927 52.997 36.591 52.997"></polygon>
                        <polygon id="Fill-56" fill="#FEFEFE" points="36.591 67.37 37.927 67.37 37.927 66.034 36.591 66.034"></polygon>
                        <polygon id="Fill-57" fill="#FEFEFE" points="36.625 80.418 37.961 80.418 37.961 79.082 36.625 79.082"></polygon>
                        <polygon id="Fill-58" fill="#FEFEFE" points="43.157 87.368 44.493 87.368 44.493 86.032 43.157 86.032"></polygon>
                        <polygon id="Fill-59" fill="#FEFEFE" points="43.147 21.69 44.483 21.69 44.483 20.354 43.147 20.354"></polygon>
                        <polygon id="Fill-60" fill="#FEFEFE" points="56.297 34.842 57.633 34.842 57.633 33.506 56.297 33.506"></polygon>
                        <polygon id="Fill-61" fill="#FEFEFE" points="56.287 47.964 57.623 47.964 57.623 46.628 56.287 46.628"></polygon>
                        <polygon id="Fill-62" fill="#FEFEFE" points="56.287 61.095 57.623 61.095 57.623 59.759 56.287 59.759"></polygon>
                        <polygon id="Fill-63" fill="#FEFEFE" points="49.733 67.378 51.069 67.378 51.069 66.042 49.733 66.042"></polygon>
                        <polygon id="Fill-64" fill="#FEFEFE" points="49.721 54.329 51.057 54.329 51.057 52.993 49.721 52.993"></polygon>
                        <polygon id="Fill-65" fill="#FEFEFE" points="56.287 74.226 57.623 74.226 57.623 72.89 56.287 72.89"></polygon>
                        <polygon id="Fill-66" fill="#FEFEFE" points="62.867 80.416 64.203 80.416 64.203 79.08 62.867 79.08"></polygon>
                        <polygon id="Fill-67" fill="#FEFEFE" points="62.867 67.376 64.203 67.376 64.203 66.04 62.867 66.04"></polygon>
                        <polygon id="Fill-68" fill="#FEFEFE" points="62.867 41.306 64.203 41.306 64.203 39.97 62.867 39.97"></polygon>
                        <polygon id="Fill-69" fill="#FEFEFE" points="62.867 28.247 64.203 28.247 64.203 26.911 62.867 26.911"></polygon>
                        <polygon id="Fill-70" fill="#FEFEFE" points="69.417 21.69 70.753 21.69 70.753 20.354 69.417 20.354"></polygon>
                        <polygon id="Fill-71" fill="#FEFEFE" points="69.417 34.842 70.753 34.842 70.753 33.506 69.417 33.506"></polygon>
                        <polygon id="Fill-72" fill="#FEFEFE" points="69.417 74.226 70.753 74.226 70.753 72.89 69.417 72.89"></polygon>
                        <polygon id="Fill-73" fill="#FEFEFE" points="69.417 87.367 70.753 87.367 70.753 86.031 69.417 86.031"></polygon>
                        <polygon id="Fill-74" fill="#FEFEFE" points="10.303 41.303 11.639 41.303 11.639 39.967 10.303 39.967"></polygon>
                        <polygon id="Fill-75" fill="#FEFEFE" points="10.313 54.334 11.649 54.334 11.649 52.998 10.313 52.998"></polygon>
                        <polygon id="Fill-76" fill="#FEFEFE" points="10.313 67.375 11.649 67.375 11.649 66.039 10.313 66.039"></polygon>
                        <polygon id="Fill-77" fill="#FEFEFE" points="10.313 80.425 11.649 80.425 11.649 79.089 10.313 79.089"></polygon>
                        <polygon id="Fill-78" fill="#FEFEFE" points="3.74 34.837 5.076 34.837 5.076 33.501 3.74 33.501"></polygon>
                        <polygon id="Fill-79" fill="#FEFEFE" points="3.74 47.964 5.076 47.964 5.076 46.628 3.74 46.628"></polygon>
                        <polygon id="Fill-80" fill="#FEFEFE" points="3.74 61.097 5.076 61.097 5.076 59.761 3.74 59.761"></polygon>
                        <polygon id="Fill-81" fill="#FEFEFE" points="3.74 74.224 5.076 74.224 5.076 72.888 3.74 72.888"></polygon>
                        <polygon id="Fill-82" fill="#FEFEFE" points="3.74 87.364 5.076 87.364 5.076 86.028 3.74 86.028"></polygon>
                    </g>
                </g>
            </g>
        </g>
    </g>
</svg>